<svg xmlns="http://www.w3.org/2000/svg" viewBox="0 0 200 200">
  <defs>
    <linearGradient id="grad1" x1="0%" y1="0%" x2="100%" y2="100%">
      <stop offset="0%" style="stop-color:#4a4a4a;stop-opacity:1" />
      <stop offset="100%" style="stop-color:#2a2a2a;stop-opacity:1" />
    </linearGradient>
  </defs>
  
  <rect x="0" y="0" width="200" height="200" fill="#1a1a1a"/>
  
  <!-- Hexagon Web3 structure -->
  <path d="M100 20 L160 50 L160 110 L100 140 L40 110 L40 50 Z" fill="none" stroke="#3a3a3a" stroke-width="4"/>
  
  <!-- Inner hexagon representing NFT -->
  <!-- <path d="M100 60 L130 75 L130 105 L100 120 L70 105 L70 75 Z" fill="url(#grad1)" stroke="#808080" stroke-width="2"/> -->
  
  <!-- Cube for blockchain/Web3 -->
  <!-- <path d="M85 100 L115 100 L125 115 L100 130 L75 115 Z" fill="#4a4a4a" stroke="#606060" stroke-width="2"/> -->

  <!-- NFT Card -->
  <rect x="70" y="40" width="60" height="80" rx="5" ry="5" fill="url(#grad1)" stroke="#808080" stroke-width="2"/>
  <rect x="75" y="45" width="50" height="50" rx="3" ry="3" fill="#606060" stroke="#909090" stroke-width="1"/>
  <path d="M90 65 L110 55 L120 70 L130 60 L140 75" fill="none" stroke="#a0a0a0" stroke-width="2"/>
  <rect x="75" y="100" width="30" height="5" rx="2" ry="2" fill="#909090"/>
  <rect x="75" y="110" width="40" height="5" rx="2" ry="2" fill="#909090"/>
  
  <!-- Stylish ChainRent text -->
  <text x="100" y="175" font-family="Arial, sans-serif" font-size="24" fill="#ffffff" text-anchor="middle" font-weight="bold" letter-spacing="2">
    <tspan style="fill: #e0e0e0">Chain</tspan><tspan style="fill: #a0a0a0">Rent</tspan>
  </text>
</svg>